<svg width="403" height="362" viewBox="0 0 403 362" fill="none" xmlns="http://www.w3.org/2000/svg">
<path d="M97.607 5.22975C150.707 -17.0154 187.987 36.5941 198.047 74.1562C208.107 111.718 232.977 122.225 255.857 108.839C278.737 95.4519 317.717 39.7243 366.907 85.6336C416.097 131.543 347.837 245.742 242.637 258.044C183.797 264.93 99.107 241.182 69.427 149.886C51.747 95.4936 55.107 23.03 97.607 5.22975Z" fill="#407BFF"/>
<path opacity="0.9" d="M97.607 5.22975C150.707 -17.0154 187.987 36.5941 198.047 74.1562C208.107 111.718 232.977 122.225 255.857 108.839C278.737 95.4519 317.717 39.7243 366.907 85.6336C416.097 131.543 347.837 245.742 242.637 258.044C183.797 264.93 99.107 241.182 69.427 149.886C51.747 95.4936 55.107 23.03 97.607 5.22975Z" fill="white"/>
<path d="M209.107 361.673C316.189 361.673 402.997 356.385 402.997 349.862C402.997 343.339 316.189 338.051 209.107 338.051C102.024 338.051 15.2168 343.339 15.2168 349.862C15.2168 356.385 102.024 361.673 209.107 361.673Z" fill="#F5F5F5"/>
<path d="M72.2667 315.18L51.0567 145.107H47.2667H43.3267H43.0967H40.5367H38.7667L2.10669 315.18H6.10669L39.1567 164.159L28.2267 315.18H32.7967L45.6967 163.544L67.1067 315.18H72.2667Z" fill="#E0E0E0"/>
<path d="M111.547 285.746H21.1067L0.106689 89.1602H90.5467L111.547 285.746Z" fill="#407BFF"/>
<path opacity="0.8" d="M111.547 285.746H21.1067L0.106689 89.1602H90.5467L111.547 285.746Z" fill="white"/>
<path d="M87.9865 106.501H7.07646L5.86646 95.1806H86.7765L87.9865 106.501Z" fill="#407BFF"/>
<path d="M59.3067 153.277H12.0767L11.6567 149.354H58.8867L59.3067 153.277Z" fill="#407BFF"/>
<path d="M60.2467 162.104H13.0167L12.5967 158.181H59.8267L60.2467 162.104Z" fill="#407BFF"/>
<path d="M35.7169 143.124H10.9869L8.29688 117.937H33.0269L35.7169 143.124Z" fill="#407BFF"/>
<path d="M65.5167 211.467H18.2867L17.8667 207.543H65.1067L65.5167 211.467Z" fill="#407BFF"/>
<path d="M66.4666 220.294H19.2367L18.8167 216.371H66.0466L66.4666 220.294Z" fill="#407BFF"/>
<path d="M41.9366 201.325H17.2066L14.5166 176.137H39.2466L41.9366 201.325Z" fill="#407BFF"/>
<path opacity="0.6" d="M87.9865 106.501H7.07646L5.86646 95.1806H86.7765L87.9865 106.501Z" fill="white"/>
<path opacity="0.6" d="M59.3067 153.277H12.0767L11.6567 149.354H58.8867L59.3067 153.277Z" fill="white"/>
<path opacity="0.6" d="M60.2467 162.104H13.0167L12.5967 158.181H59.8267L60.2467 162.104Z" fill="white"/>
<path opacity="0.6" d="M35.7169 143.124H10.9869L8.29688 117.937H33.0269L35.7169 143.124Z" fill="white"/>
<path opacity="0.6" d="M65.5167 211.467H18.2867L17.8667 207.543H65.1067L65.5167 211.467Z" fill="white"/>
<path opacity="0.6" d="M66.4666 220.294H19.2367L18.8167 216.371H66.0466L66.4666 220.294Z" fill="white"/>
<path opacity="0.6" d="M41.9366 201.325H17.2066L14.5166 176.137H39.2466L41.9366 201.325Z" fill="white"/>
<path d="M292.587 340.253L284.477 341.139L282.957 322.891L291.067 321.993L292.587 340.253Z" fill="#E4897B"/>
<path d="M333.067 339.637H325.207L324.557 320.637H332.427L333.067 339.637Z" fill="#E4897B"/>
<path d="M324.107 338.687H333.657C333.814 338.686 333.966 338.742 334.088 338.845C334.21 338.947 334.295 339.091 334.327 339.251L335.877 346.555C335.909 346.732 335.904 346.914 335.861 347.089C335.818 347.264 335.739 347.426 335.629 347.566C335.52 347.705 335.382 347.818 335.226 347.895C335.07 347.973 334.9 348.014 334.727 348.015C331.637 347.963 329.387 347.765 325.507 347.765C323.117 347.765 315.907 348.026 312.607 348.026C309.307 348.026 308.877 344.624 310.227 344.311C316.287 342.934 320.847 341.025 322.787 339.209C323.146 338.864 323.619 338.677 324.107 338.687Z" fill="#2E353A"/>
<path d="M321.517 340.127C320.983 340.169 320.451 340.022 320.007 339.71C319.863 339.584 319.752 339.423 319.684 339.24C319.616 339.058 319.593 338.861 319.617 338.667C319.613 338.553 319.641 338.441 319.698 338.345C319.755 338.248 319.838 338.171 319.937 338.124C320.807 337.655 323.347 339.282 323.627 339.47C323.66 339.486 323.687 339.513 323.704 339.547C323.72 339.582 323.725 339.621 323.717 339.658C323.712 339.697 323.696 339.734 323.671 339.764C323.646 339.793 323.613 339.815 323.577 339.825C322.903 340.004 322.212 340.106 321.517 340.127ZM320.347 338.427C320.264 338.417 320.18 338.436 320.107 338.479C320.057 338.479 319.997 338.552 319.987 338.708C319.971 338.837 319.986 338.968 320.029 339.09C320.073 339.212 320.144 339.321 320.237 339.407C321.119 339.825 322.119 339.877 323.037 339.553C322.219 338.999 321.305 338.616 320.347 338.427Z" fill="#407BFF"/>
<path d="M323.527 339.835H323.437C322.627 339.376 321.057 337.571 321.217 336.705C321.245 336.561 321.32 336.431 321.429 336.337C321.539 336.244 321.676 336.193 321.817 336.194C321.958 336.174 322.102 336.187 322.238 336.23C322.374 336.273 322.5 336.346 322.607 336.444C323.517 337.216 323.707 339.574 323.717 339.689C323.717 339.724 323.709 339.759 323.694 339.79C323.678 339.821 323.655 339.847 323.627 339.867C323.591 339.867 323.556 339.856 323.527 339.835ZM321.947 336.507H321.857C321.617 336.507 321.597 336.653 321.587 336.705C321.487 337.237 322.487 338.604 323.297 339.24C323.246 338.306 322.922 337.41 322.367 336.674C322.252 336.564 322.102 336.505 321.947 336.507Z" fill="#407BFF"/>
<path d="M283.617 338.427H293.167C293.324 338.426 293.476 338.481 293.598 338.584C293.72 338.686 293.805 338.83 293.837 338.99L295.387 346.294C295.419 346.471 295.414 346.653 295.371 346.828C295.328 347.003 295.249 347.166 295.139 347.305C295.03 347.444 294.892 347.557 294.736 347.634C294.58 347.712 294.41 347.753 294.237 347.755C291.147 347.702 288.897 347.504 285.017 347.504C282.627 347.504 275.417 347.765 272.117 347.765C268.817 347.765 268.387 344.364 269.737 344.051C275.797 342.673 280.357 340.764 282.297 338.948C282.656 338.603 283.129 338.416 283.617 338.427Z" fill="#2E353A"/>
<path d="M281.017 339.867C280.483 339.909 279.951 339.762 279.507 339.449C279.363 339.323 279.252 339.162 279.184 338.979C279.116 338.797 279.093 338.6 279.117 338.406C279.113 338.293 279.141 338.18 279.198 338.084C279.255 337.987 279.338 337.911 279.437 337.863C280.307 337.394 282.847 339.021 283.127 339.209C283.16 339.225 283.187 339.252 283.204 339.286C283.22 339.321 283.225 339.36 283.217 339.397C283.212 339.436 283.196 339.473 283.171 339.503C283.146 339.533 283.113 339.554 283.077 339.564C282.403 339.743 281.712 339.845 281.017 339.867ZM279.847 338.135C279.764 338.125 279.68 338.144 279.607 338.187C279.557 338.187 279.497 338.26 279.487 338.416C279.471 338.545 279.486 338.676 279.529 338.798C279.573 338.92 279.644 339.029 279.737 339.115C280.619 339.533 281.619 339.585 282.537 339.261C281.719 338.707 280.805 338.324 279.847 338.135Z" fill="#407BFF"/>
<path d="M283.027 339.574H282.937C282.127 339.115 280.557 337.31 280.717 336.444C280.745 336.3 280.82 336.17 280.929 336.076C281.039 335.983 281.176 335.933 281.317 335.933C281.458 335.914 281.602 335.926 281.738 335.969C281.874 336.012 282 336.085 282.107 336.183C283.017 336.955 283.207 339.314 283.217 339.428C283.217 339.463 283.209 339.498 283.194 339.529C283.178 339.56 283.155 339.586 283.127 339.606C283.091 339.606 283.056 339.596 283.027 339.574ZM281.447 336.246H281.357C281.117 336.246 281.097 336.392 281.087 336.444C280.987 336.976 281.987 338.343 282.797 338.98C282.746 338.045 282.422 337.149 281.867 336.413C281.752 336.304 281.602 336.244 281.447 336.246Z" fill="#407BFF"/>
<path opacity="0.2" d="M291.067 321.993L282.957 322.891L283.747 332.302L291.857 331.415L291.067 321.993Z" fill="black"/>
<path opacity="0.2" d="M332.427 320.647H324.557L324.897 330.445H332.767L332.427 320.647Z" fill="black"/>
<path d="M329.177 153.976H287.457C283.457 176.576 271.077 256.562 279.987 327.836L294.107 326.01C294.107 326.01 292.797 231.395 305.267 196.421C306.707 215.139 308.407 235.026 309.887 245.648C313.517 271.733 321.287 328.744 321.287 328.744H335.667C335.667 328.744 332.727 274.175 331.367 248.538C329.877 220.711 329.237 159.714 329.177 153.976Z" fill="#407BFF"/>
<path opacity="0.6" d="M335.667 328.744H321.287C321.287 328.744 313.517 271.733 309.887 245.648C308.407 235.058 306.707 215.139 305.267 196.421C303.214 202.552 301.655 208.852 300.607 215.254C293.157 257.209 294.107 326.01 294.107 326.01L279.987 328.097C271.107 256.823 283.487 176.409 287.457 154.497H329.177C329.237 159.714 329.877 220.972 331.367 248.799C332.727 274.488 335.667 328.744 335.667 328.744Z" fill="white"/>
<path d="M278.367 331.269L295.847 328.556L295.317 323.506L277.127 325.989L278.367 331.269Z" fill="#407BFF"/>
<path d="M319.557 328.869H336.517V323.579L318.917 323.235L319.557 328.869Z" fill="#407BFF"/>
<path d="M336.407 82.5034C334.096 91.358 332.425 100.381 331.407 109.496C331.077 112.292 330.807 115.036 330.587 117.697C330.297 121.078 330.097 124.333 329.937 127.421C329.737 131.334 329.677 135.956 329.687 140.506C329.687 150.939 330.107 161.008 330.107 161.008C322.107 163.095 298.987 161.707 286.357 160.747C284.869 148.147 284.481 135.431 285.197 122.757C285.617 114.388 286.502 106.051 287.847 97.7891C288.525 93.3776 289.467 89.0147 290.667 84.7258C291.131 83.2056 292.003 81.8561 293.18 80.8372C294.357 79.8182 295.789 79.1726 297.307 78.9767C298.837 78.7785 300.607 78.5802 302.467 78.4654C303.187 78.4654 303.907 78.3924 304.637 78.382C310.602 78.4528 316.559 78.8848 322.477 79.6758C323.597 79.8114 324.737 79.9888 325.837 80.1766C329.397 80.7577 332.925 81.5344 336.407 82.5034Z" fill="#407BFF"/>
<path opacity="0.2" d="M295.817 92.593C291.69 102.416 288.143 112.493 285.197 122.768C285.617 114.399 286.502 106.062 287.847 97.7995L295.817 92.593Z" fill="black"/>
<path d="M294.567 79.8845C285.107 80.6775 266.507 112.95 270.007 119.961C273.507 126.973 279.367 130.239 289.487 110.414C299.607 90.5897 294.567 79.8845 294.567 79.8845Z" fill="#407BFF"/>
<path opacity="0.2" d="M294.567 79.8845C285.107 80.6775 266.507 112.95 270.007 119.961C273.507 126.973 279.367 130.239 289.487 110.414C299.607 90.5897 294.567 79.8845 294.567 79.8845Z" fill="black"/>
<path d="M299.107 43.2927C299.107 43.2927 297.777 52.5893 303.527 56.9403C309.277 61.2912 309.277 40.246 309.277 40.246L299.107 43.2927Z" fill="#2E353A"/>
<path d="M322.487 79.6341C318.657 83.2651 309.277 81.9191 309.277 81.9191C309.277 81.9191 303.417 80.2496 304.647 78.3402C308.097 77.7455 309.767 76.0657 310.457 73.9163C310.835 72.5839 310.954 71.1863 310.807 69.8053C310.75 69.0353 310.653 68.269 310.517 67.5098L322.107 58.5054C320.597 64.4631 318.737 75.3457 322.487 79.6341Z" fill="#E4897B"/>
<path opacity="0.2" d="M319.437 64.244C318.977 71.5478 313.257 73.5093 310.437 73.9163C310.815 72.5839 310.934 71.1863 310.787 69.8053L319.437 64.244Z" fill="black"/>
<path d="M320.217 65.9239C319.012 67.7849 317.255 69.1817 315.215 69.8998C313.175 70.618 310.966 70.6178 308.927 69.8992C306.275 69.0178 304.041 67.12 302.677 64.5883C302.487 64.2499 302.313 63.9016 302.157 63.5449C299.327 56.6377 298.427 44.5552 305.427 40.0269C306.966 39.0182 308.727 38.4369 310.542 38.3383C312.357 38.2397 314.167 38.627 315.798 39.4634C317.429 40.2998 318.829 41.5576 319.863 43.1171C320.897 44.6767 321.532 46.4863 321.707 48.374C322.567 56.4186 323.437 61.1451 320.217 65.9239Z" fill="#E4897B"/>
<path d="M310.427 52.6832C310.577 53.3197 310.287 53.9144 309.877 53.9875C309.467 54.0605 309.047 53.591 308.937 52.9441C308.827 52.2972 309.087 51.7129 309.487 51.6398C309.887 51.5668 310.307 52.0154 310.427 52.6832Z" fill="#2E353A"/>
<path d="M303.357 53.9353C303.507 54.5718 303.217 55.1769 302.807 55.25C302.397 55.323 301.987 54.8431 301.877 54.2066C301.767 53.5701 302.017 52.9649 302.427 52.8919C302.837 52.8189 303.257 53.2884 303.357 53.9353Z" fill="#2E353A"/>
<path d="M305.657 53.8623C305.235 55.9855 304.539 58.0389 303.587 59.9661C304.072 60.2035 304.601 60.3266 305.137 60.3266C305.673 60.3266 306.202 60.2035 306.687 59.9661L305.657 53.8623Z" fill="#DE5753"/>
<path d="M312.227 49.8974C312.162 49.9204 312.093 49.9248 312.026 49.9101C311.959 49.8954 311.897 49.8622 311.847 49.8139C311.514 49.4715 311.11 49.2149 310.665 49.0646C310.221 48.9142 309.749 48.8743 309.287 48.9479C309.191 48.9728 309.09 48.9571 309.006 48.9043C308.922 48.8514 308.861 48.7658 308.837 48.6662C308.813 48.5665 308.828 48.4611 308.879 48.373C308.929 48.285 309.011 48.2215 309.107 48.1966C309.688 48.0876 310.285 48.1255 310.849 48.307C311.412 48.4886 311.926 48.8085 312.347 49.24C312.382 49.2751 312.41 49.3172 312.429 49.3638C312.448 49.4104 312.458 49.4606 312.458 49.5113C312.458 49.562 312.448 49.6122 312.429 49.6588C312.41 49.7054 312.382 49.7475 312.347 49.7826C312.314 49.8283 312.273 49.8672 312.227 49.8974Z" fill="#2E353A"/>
<path d="M308.247 63.211C309.165 63.1967 310.066 62.9499 310.873 62.4919C311.679 62.0339 312.367 61.3784 312.877 60.5817C312.891 60.5587 312.9 60.5329 312.905 60.5059C312.909 60.4789 312.907 60.4513 312.901 60.4249C312.894 60.3984 312.883 60.3737 312.866 60.3522C312.85 60.3307 312.83 60.3129 312.807 60.3C312.764 60.2727 312.713 60.2639 312.665 60.2757C312.616 60.2874 312.574 60.3186 312.547 60.3626C312.059 61.0888 311.415 61.6859 310.667 62.1062C309.919 62.5265 309.086 62.7584 308.237 62.7833C308.187 62.7858 308.14 62.8075 308.105 62.8441C308.07 62.8808 308.049 62.9297 308.047 62.9815C308.047 63.0341 308.067 63.0845 308.103 63.1217C308.138 63.1589 308.186 63.1797 308.237 63.1797L308.247 63.211Z" fill="#2E353A"/>
<path d="M299.907 51.932C299.844 51.9733 299.771 51.995 299.697 51.9946C299.649 51.9813 299.605 51.9583 299.566 51.9269C299.527 51.8955 299.494 51.8563 299.47 51.8116C299.446 51.7669 299.431 51.7176 299.425 51.6666C299.419 51.6156 299.423 51.564 299.437 51.5146C299.59 50.9186 299.877 50.3696 300.276 49.9138C300.674 49.458 301.172 49.1089 301.727 48.8957C301.773 48.8798 301.823 48.874 301.871 48.8786C301.92 48.8833 301.968 48.8982 302.011 48.9227C302.054 48.9471 302.092 48.9804 302.122 49.0207C302.152 49.0609 302.174 49.1071 302.187 49.1566C302.201 49.2052 302.205 49.2562 302.2 49.3067C302.195 49.3571 302.18 49.406 302.157 49.4506C302.134 49.4952 302.103 49.5346 302.065 49.5665C302.027 49.5984 301.983 49.6222 301.937 49.6365C301.506 49.8168 301.12 50.0991 300.811 50.4612C300.502 50.8234 300.278 51.2554 300.157 51.7233C300.134 51.7763 300.1 51.8229 300.056 51.8592C300.013 51.8955 299.961 51.9205 299.907 51.932Z" fill="#2E353A"/>
<path d="M311.937 43.1153C314.107 41.9885 316.677 43.7622 316.107 46.162C315.357 49.2922 317.527 53.7162 319.937 55.2917C319.937 55.2917 319.857 53.9875 320.937 54.1544C322.017 54.3214 322.527 61.1138 320.857 64.5883C320.857 64.5883 323.607 61.2912 324.527 53.9875C325.447 46.6837 324.857 40.8512 322.937 38.8583C321.017 36.8654 320.527 38.9418 319.107 36.1559C317.687 33.37 314.857 30.2503 312.437 32.0762C310.017 33.9022 307.527 34.2465 305.607 32.8588C303.687 31.4711 301.527 33.7248 301.777 36.2498C302.027 38.7748 298.027 36.9384 297.187 39.5469C296.347 42.1554 298.247 50.2521 311.937 43.1153Z" fill="#2E353A"/>
<path opacity="0.2" d="M308.927 69.8992C306.275 69.0178 304.041 67.12 302.677 64.5883C304.567 64.5883 307.317 64.7031 308.037 65.1622C308.757 65.6213 308.917 68.1359 308.927 69.8992Z" fill="black"/>
<path d="M326.107 54.3318C325.548 56.295 324.268 57.9486 322.547 58.9332C320.257 60.2165 318.547 58.2132 318.707 55.6569C318.867 53.3719 320.217 49.887 322.757 49.6887C325.297 49.4905 326.787 51.9111 326.107 54.3318Z" fill="#E4897B"/>
<path d="M320.777 75.0222L309.687 80.2392L309.037 76.0656L304.967 77.5577C304.254 77.8154 303.646 78.3181 303.243 78.9835C302.839 79.6489 302.665 80.4374 302.747 81.22L303.197 85.8109L308.827 82.5973L311.627 86.7708L324.947 80.0827L320.777 75.0222Z" fill="#407BFF"/>
<path opacity="0.6" d="M320.777 75.0222L309.687 80.2392L309.037 76.0656L304.967 77.5577C304.254 77.8154 303.646 78.3181 303.243 78.9835C302.839 79.6489 302.665 80.4374 302.747 81.22L303.197 85.8109L308.827 82.5973L311.627 86.7708L324.947 80.0827L320.777 75.0222Z" fill="white"/>
<path d="M292.947 94.9302L302.357 78.9454C303.905 78.5873 305.28 77.6664 306.237 76.3474C307.687 74.2606 308.587 65.9134 307.907 65.5587C307.227 65.2039 299.907 66.0804 299.407 67.1029C298.907 68.1254 297.457 76.5978 297.457 76.5978L286.617 89.8593L292.947 94.9302Z" fill="#E4897B"/>
<path d="M271.747 108.933C276.357 101.034 292.537 80.4583 292.537 80.4583L300.047 85.7379C300.047 85.7379 286.517 114.389 281.437 119.961C276.357 125.533 265.247 120.065 271.747 108.933Z" fill="#407BFF"/>
<path opacity="0.1" d="M271.747 108.933C276.357 101.034 292.537 80.4583 292.537 80.4583L300.047 85.7379C300.047 85.7379 286.517 114.389 281.437 119.961C276.357 125.533 265.247 120.065 271.747 108.933Z" fill="black"/>
<path opacity="0.2" d="M329.937 127.432C329.737 131.345 329.677 135.967 329.687 140.516C314.947 138.847 311.277 130.499 311.277 130.499L330.587 117.749C330.297 121.109 330.107 124.343 329.937 127.432Z" fill="black"/>
<path d="M301.357 120.733L283.417 119.429C282.396 118.166 280.979 117.323 279.417 117.05C276.937 116.695 269.487 119.69 269.487 120.493C269.487 121.297 273.617 127.641 274.727 127.641C275.837 127.641 283.727 125.042 283.727 125.042L300.007 128.934L301.357 120.733Z" fill="#E4897B"/>
<path d="M336.287 82.5973C336.287 82.5973 340.057 84.8406 340.607 95.8066C341.097 105.698 338.047 126.743 332.107 131.345C322.617 138.648 288.107 128.559 288.107 128.559L289.437 117.979C289.437 117.979 315.557 121.589 321.777 117.979C327.997 114.369 329.857 95.8484 329.857 95.8484C329.857 95.8484 332.457 83.7346 336.287 82.5973Z" fill="#407BFF"/>
<path opacity="0.1" d="M336.287 82.5973C336.287 82.5973 340.057 84.8406 340.607 95.8066C341.097 105.698 338.047 126.743 332.107 131.345C322.617 138.648 288.107 128.559 288.107 128.559L289.437 117.979C289.437 117.979 315.557 121.589 321.777 117.979C327.997 114.369 329.857 95.8484 329.857 95.8484C329.857 95.8484 332.457 83.7346 336.287 82.5973Z" fill="black"/>
<path d="M291.937 117.123L290.207 130.458L287.037 129.185L287.847 117.332L291.937 117.123Z" fill="#407BFF"/>
<path opacity="0.6" d="M291.937 117.123L290.207 130.458L287.037 129.185L287.847 117.332L291.937 117.123Z" fill="white"/>
<path d="M290.317 81.7834L292.737 79.248L300.807 85.5084L300.047 88.7637L290.317 81.7834Z" fill="#407BFF"/>
<path opacity="0.6" d="M290.317 81.7834L292.737 79.248L300.807 85.5084L300.047 88.7637L290.317 81.7834Z" fill="white"/>
<path opacity="0.2" d="M305.267 196.421C303.214 202.552 301.655 208.852 300.607 215.254C299.437 198.56 304.107 180.927 304.107 180.927L305.267 196.421Z" fill="black"/>
<path d="M203.447 329.881L197.147 331.05L194.557 322.077L192.197 313.834L199.467 311.184L201.577 321.085L203.447 329.881Z" fill="#E4897B"/>
<path opacity="0.2" d="M201.617 321.284L194.587 322.254L192.207 313.928L199.477 311.236L201.617 321.284Z" fill="black"/>
<path d="M161.337 332.918H154.937L153.887 323.506L152.927 314.909L160.537 313.594L160.967 323.819L161.337 332.918Z" fill="#E4897B"/>
<path opacity="0.2" d="M160.967 323.903L153.887 323.579L152.927 314.95L160.537 313.615L160.967 323.903Z" fill="black"/>
<path d="M211.357 125.282L221.697 114.619C221.697 114.619 222.057 111.76 223.057 110.967C224.057 110.174 231.157 107.482 232.057 108.087C232.957 108.693 234.137 114.661 232.927 115.756C231.717 116.852 225.257 118.25 224.597 118.135L213.407 132.002L211.357 125.282Z" fill="#EEC1BB"/>
<path d="M174.307 105.823C178.777 108.286 194.607 131.386 196.937 132.534C199.267 133.682 217.107 118.594 217.107 118.594L220.107 123.937C220.107 123.937 205.477 145.503 197.207 144.46C188.937 143.417 173.107 125.157 173.107 125.157L174.307 105.823Z" fill="#407BFF"/>
<path opacity="0.3" d="M174.307 105.823C178.777 108.286 194.607 131.386 196.937 132.534C199.267 133.682 217.107 118.594 217.107 118.594L220.107 123.937C220.107 123.937 205.477 145.503 197.207 144.46C188.937 143.417 173.107 125.157 173.107 125.157L174.307 105.823Z" fill="black"/>
<path d="M216.117 119.158L217.357 117.937L220.607 123.676L219.437 126.023L216.117 119.158Z" fill="#407BFF"/>
<path opacity="0.2" d="M179.467 131.898C175.767 128.214 173.107 125.157 173.107 125.157L173.387 120.566L174.777 116.111C176.69 118.175 178.111 120.679 178.926 123.421C179.741 126.163 179.926 129.067 179.467 131.898Z" fill="black"/>
<path d="M202.207 316.067L191.837 317.976C181.377 290.775 173.937 268.071 168.677 249.227C165.847 239.054 163.487 230.018 161.787 221.994L162.107 251.606V318.31H151.887C126.277 191.016 144.427 162.01 144.427 162.01L175.107 156.678C176.323 162.605 177.182 168.606 177.677 174.645L179.057 185.257L191.057 249.811L202.207 316.067Z" fill="#2E353A"/>
<path d="M144.107 162.281C144.107 162.281 139.517 173.289 138.187 177.932L161.257 180.77L164.917 166.423L170.197 179.727L178.857 176.325L176.107 159.787L144.107 162.281Z" fill="#407BFF"/>
<path opacity="0.3" d="M144.107 162.281C144.107 162.281 139.517 173.289 138.187 177.932L161.257 180.77L164.917 166.423L170.197 179.727L178.857 176.325L176.107 159.787L144.107 162.281Z" fill="black"/>
<path d="M144.107 157.513V162.281L176.107 159.777V154.143L144.107 157.513Z" fill="#2E353A"/>
<path d="M168.463 155.299L161.63 155.937L162.094 161.341L168.927 160.703L168.463 155.299Z" fill="white"/>
<path d="M154.937 155.489L153.389 155.571L153.794 163.814L155.342 163.731L154.937 155.489Z" fill="#407BFF"/>
<path opacity="0.3" d="M154.937 155.489L153.389 155.571L153.794 163.814L155.342 163.731L154.937 155.489Z" fill="black"/>
<path d="M173.997 153.325L172.449 153.408L172.852 161.65L174.4 161.568L173.997 153.325Z" fill="#407BFF"/>
<path opacity="0.3" d="M173.997 153.325L172.449 153.408L172.852 161.65L174.4 161.568L173.997 153.325Z" fill="black"/>
<path opacity="0.2" d="M168.677 249.227C165.847 239.054 163.677 230.018 161.947 221.995C162.098 212.496 162.765 203.013 163.947 193.593C163.947 193.593 168.417 230.227 168.677 249.227Z" fill="black"/>
<path d="M139.267 80.6983C140.167 84.3084 135.267 94.2624 137.267 112.355C139.267 130.447 158.267 129.352 166.837 123.321C175.407 117.29 173.907 84.538 170.967 78.0898C168.027 71.6417 139.267 80.6983 139.267 80.6983Z" fill="#2E353A"/>
<path d="M175.807 154.706L144.547 157.523C144.249 149.425 143.136 141.381 141.227 133.525C140.477 130.395 139.537 126.91 138.337 122.883C137.697 120.723 136.987 118.417 136.187 115.923C135.587 114.035 134.947 112.031 134.187 109.913C138.44 108.502 142.785 107.411 147.187 106.647C151.813 105.79 156.491 105.274 161.187 105.103C167.267 105.103 174.247 105.771 174.247 105.771C174.247 105.771 175.247 106.011 175.867 112.741C176.497 119.106 177.107 131.741 175.807 154.706Z" fill="#407BFF"/>
<path opacity="0.3" d="M175.807 154.706L144.547 157.523C144.249 149.425 143.136 141.381 141.227 133.525C140.477 130.395 139.537 126.91 138.337 122.883C137.697 120.723 136.987 118.417 136.187 115.923C135.587 114.035 134.947 112.031 134.187 109.913C138.44 108.502 142.785 107.411 147.187 106.647C151.813 105.79 156.491 105.274 161.187 105.103C167.267 105.103 174.247 105.771 174.247 105.771C174.247 105.771 175.247 106.011 175.867 112.741C176.497 119.106 177.107 131.741 175.807 154.706Z" fill="black"/>
<path d="M155.627 104.216C151.877 104.456 145.877 104.415 141.997 110.675H149.107L145.237 115.61C145.237 115.61 157.687 118.74 161.587 127.234C161.587 127.234 167.167 117.134 170.197 114.786C168.336 112.856 166.205 111.23 163.877 109.965C165.904 109.064 168.025 108.413 170.197 108.025C170.197 108.025 160.697 103.903 155.627 104.216Z" fill="white"/>
<path d="M148.647 107.9C148.647 107.9 158.287 119.241 161.257 124.719C162.614 118.728 162.476 112.473 160.857 106.554L148.647 107.9Z" fill="#407BFF"/>
<path opacity="0.6" d="M148.647 107.9C148.647 107.9 158.287 119.241 161.257 124.719C162.614 118.728 162.476 112.473 160.857 106.554L148.647 107.9Z" fill="white"/>
<path d="M158.667 112.355C150.957 111.311 148.667 107.9 148.667 107.9C153.557 103.09 149.497 94.7528 149.497 94.7528L158.767 96.5579C158.548 97.9027 158.427 99.2631 158.407 100.627C158.337 106.501 160.877 106.554 160.877 106.554C162.487 109.736 158.667 112.355 158.667 112.355Z" fill="#EEC1BB"/>
<path opacity="0.2" d="M158.747 96.5579C158.528 97.9027 158.407 99.2631 158.387 100.627C152.117 100.627 149.477 94.7528 149.477 94.7528L158.747 96.5579Z" fill="black"/>
<path d="M153.617 69.5027C161.677 69.0436 164.507 73.3946 165.557 82.0234C166.867 92.8121 164.967 100.638 154.767 98.8951C140.917 96.5475 140.237 70.2644 153.617 69.5027Z" fill="#EEC1BB"/>
<path d="M160.317 81.8565C161.03 83.0767 161.88 84.2044 162.847 85.2162C162.627 85.5715 162.317 85.8568 161.952 86.0408C161.587 86.2249 161.181 86.3006 160.777 86.2596L160.317 81.8565Z" fill="#D4827D"/>
<path d="M155.347 81.46C155.407 82.1486 155.087 82.7434 154.647 82.7747C154.207 82.806 153.807 82.2843 153.757 81.5956C153.707 80.907 154.017 80.3123 154.457 80.2809C154.897 80.2496 155.297 80.7609 155.347 81.46Z" fill="#2E353A"/>
<path d="M154.277 80.3123L155.677 79.6132C155.677 79.6132 155.047 80.9279 154.277 80.3123Z" fill="#2E353A"/>
<path d="M163.557 80.6357C163.617 81.3244 163.297 81.9191 162.857 81.9504C162.417 81.9817 162.017 81.46 161.967 80.7714C161.917 80.0827 162.227 79.488 162.667 79.4567C163.107 79.4254 163.507 79.9471 163.557 80.6357Z" fill="#2E353A"/>
<path d="M162.487 79.4984L163.877 78.7993C163.877 78.7993 163.257 80.114 162.487 79.4984Z" fill="#2E353A"/>
<path d="M154.967 75.6483C154.326 75.604 153.683 75.7136 153.089 75.9686C152.494 76.2236 151.963 76.6173 151.537 77.1195" stroke="#2E353A" stroke-width="0.686238" stroke-linecap="round" stroke-linejoin="round"/>
<path d="M160.807 74.9597C161.35 74.781 161.926 74.7342 162.489 74.8228C163.052 74.9114 163.588 75.1331 164.057 75.4709" stroke="#2E353A" stroke-width="0.686238" stroke-linecap="round" stroke-linejoin="round"/>
<path d="M159.777 89.661C159.442 90.6301 159.178 91.6242 158.987 92.6347H158.467C156.107 92.52 155.047 91.6539 154.587 90.7253C154.372 90.2717 154.266 89.7705 154.277 89.2646C154.275 88.9754 154.312 88.6873 154.387 88.409C155.814 89.1494 157.375 89.5655 158.967 89.6297L159.777 89.661Z" fill="#2E353A"/>
<path d="M158.967 89.6089L158.717 90.4749C156.497 90.3706 154.947 89.9741 154.277 89.2437C154.275 88.9545 154.312 88.6664 154.387 88.3881C155.814 89.1286 157.375 89.5447 158.967 89.6089Z" fill="white"/>
<path d="M158.467 92.6139C156.107 92.4991 155.047 91.6331 154.587 90.7045C155.484 90.7678 156.364 90.9937 157.187 91.3722C157.727 91.6372 158.174 92.0712 158.467 92.6139Z" fill="#DE5753"/>
<path d="M145.557 84.1832C145.557 84.1832 148.957 77.0569 148.107 71.7564C148.107 71.7564 163.727 64.0353 165.397 80.907C165.397 80.907 166.177 65.7987 152.297 66.2473C138.417 66.696 139.597 87.856 147.087 93.7512C147.107 93.7512 143.447 88.6385 145.557 84.1832Z" fill="#2E353A"/>
<path d="M146.967 85.884C146.833 84.916 146.337 84.0429 145.587 83.4561C144.837 82.8693 143.895 82.6167 142.967 82.7538C140.487 83.1712 139.577 88.5968 145.857 89.5254C146.767 89.6402 147.227 88.7011 146.967 85.884Z" fill="#EEC1BB"/>
<path d="M150.257 70.9113C150.814 77.8782 149.163 84.8433 145.557 90.7357C141.027 97.883 146.237 104.143 146.237 104.143C146.237 104.143 135.477 100.272 140.167 84.3189C140.167 84.3189 135.107 70.087 145.057 66.2473C145.057 66.2473 145.107 61.9172 154.107 62.7415C163.107 63.5658 170.357 71.6104 171.737 81.8669C173.117 92.1234 167.987 103.569 167.987 103.569C167.987 103.569 173.427 67.2072 150.257 70.9113Z" fill="#2E353A"/>
<path d="M150.737 70.7652L150.827 71.12C150.877 71.3495 150.947 71.6938 151.007 72.1634C151.18 73.3375 151.274 74.523 151.287 75.7109C151.287 76.4413 151.287 77.2343 151.227 78.0794C151.167 78.9246 151.087 79.7906 150.957 80.6983C150.827 81.6061 150.667 82.5243 150.467 83.4633C150.267 84.4024 150.017 85.331 149.747 86.2596C149.477 87.1882 149.187 88.096 148.827 88.9829C148.502 89.854 148.135 90.7072 147.727 91.5392C147.017 93.0087 146.176 94.406 145.217 95.7127C144.54 96.6418 143.791 97.5108 142.977 98.3108C142.66 98.6098 142.326 98.8886 141.977 99.1455C142.329 98.8773 142.663 98.5844 142.977 98.2691C143.767 97.4494 144.486 96.5591 145.127 95.6084C146.031 94.2691 146.817 92.8479 147.477 91.3618C147.852 90.5247 148.186 89.668 148.477 88.795C148.787 87.929 149.047 86.9795 149.297 86.0718C149.547 85.164 149.747 84.2146 149.907 83.2859C150.067 82.3573 150.217 81.4496 150.307 80.5627C150.397 79.6758 150.467 78.8098 150.487 77.9959C150.507 77.1821 150.487 76.3995 150.487 75.69C150.435 74.5519 150.308 73.4189 150.107 72.299C150.027 71.8921 149.957 71.5791 149.907 71.3704L149.817 71.0678L150.737 70.7652Z" fill="#2E353A"/>
<path opacity="0.2" d="M142.457 139.191C142.117 137.438 141.717 135.57 141.227 133.567C140.917 132.294 140.577 130.959 140.227 129.54C141.227 125.982 142.227 128.767 142.227 128.767C142.847 132.206 142.925 135.727 142.457 139.191Z" fill="black"/>
<path d="M105.347 162.845L94.107 172.486C94.107 172.486 91.347 172.569 90.487 173.529C89.627 174.489 86.367 181.594 86.847 182.554C87.327 183.514 92.917 185.361 94.087 184.203C95.257 183.045 97.2271 176.492 97.1771 175.793L111.507 165.547L105.347 162.845Z" fill="#EEC1BB"/>
<path d="M134.237 109.965C134.237 109.965 123.437 143.239 120.237 147.246C117.037 151.253 100.567 165.672 100.567 165.672L102.737 172.454C102.737 172.454 121.067 161.499 125.397 157.158C128.737 153.798 142.067 128.987 142.067 128.987C142.067 128.987 141.697 113.043 134.237 109.965Z" fill="#407BFF"/>
<path opacity="0.3" d="M134.237 109.965C134.237 109.965 123.437 143.239 120.237 147.246C117.037 151.253 100.567 165.672 100.567 165.672L102.737 172.454C102.737 172.454 121.067 161.499 125.397 157.158C128.737 153.798 142.067 128.987 142.067 128.987C142.067 128.987 141.697 113.043 134.237 109.965Z" fill="black"/>
<path d="M98.937 165.672L101.107 163.763L104.277 173.153L101.777 174.197L98.937 165.672Z" fill="#407BFF"/>
<path d="M170.027 346.158C169.012 345.295 167.853 344.637 166.607 344.217C166.607 344.217 162.887 340.367 161.097 328.775L156.227 327.45C155.4 327.239 154.532 327.3 153.739 327.623C152.946 327.946 152.268 328.516 151.797 329.255C151.658 329.458 151.553 329.684 151.487 329.923C151.229 331.164 151.055 332.423 150.967 333.69C150.477 337.613 150.897 346.419 150.897 346.419H151.777L152.127 338.427C152.257 335.714 154.247 338.896 154.817 341.818C155.387 344.739 156.597 347.848 162.297 347.995C168.947 348.13 171.707 347.859 170.027 346.158Z" fill="#2E353A"/>
<path d="M212.527 345.376C211.512 344.513 210.353 343.855 209.107 343.435C209.107 343.435 205.387 339.585 203.597 327.993L198.727 326.657C197.9 326.447 197.032 326.507 196.239 326.83C195.446 327.153 194.768 327.723 194.297 328.462C194.158 328.665 194.053 328.891 193.987 329.13C193.729 330.371 193.555 331.63 193.467 332.897C192.977 336.82 193.397 345.626 193.397 345.626H194.277L194.627 337.634C194.757 334.921 196.747 338.103 197.317 341.025C197.887 343.946 199.097 347.056 204.797 347.202C211.447 347.348 214.207 347.076 212.527 345.376Z" fill="#2E353A"/>
<path d="M95.6069 310.599L100.497 322.327C101.419 324.544 102.942 326.431 104.879 327.756C106.815 329.082 109.081 329.788 111.397 329.787H131.867C134.582 329.786 137.186 328.66 139.107 326.657H177.337C178.814 326.657 180.269 326.291 181.583 325.589C182.898 324.887 184.033 323.869 184.897 322.619L189.947 315.315L95.6069 310.599Z" fill="#2E353A"/>
<path d="M126.757 264.106C126.757 269.73 148.237 309.671 150.387 311.257C152.537 312.843 180.577 311.069 180.577 311.069L178.487 319.353H101.487L69.4868 254.548L90.6468 222.694L129.197 223.81C129.197 223.81 126.757 258.492 126.757 264.106Z" fill="#407BFF"/>
<path opacity="0.2" d="M126.757 264.106C126.757 269.73 148.237 309.671 150.387 311.257C152.537 312.843 180.577 311.069 180.577 311.069L178.487 319.353H101.487L69.4868 254.548L90.6468 222.694L129.197 223.81C129.197 223.81 126.757 258.492 126.757 264.106Z" fill="black"/>
<path d="M64.2066 350.217C81.5539 350.217 95.6166 332.517 95.6166 310.683C95.6166 288.849 81.5539 271.149 64.2066 271.149C46.8594 271.149 32.7966 288.849 32.7966 310.683C32.7966 332.517 46.8594 350.217 64.2066 350.217Z" fill="#2E353A"/>
<path d="M58.9467 335.62C69.8875 335.62 78.7567 324.455 78.7567 310.683C78.7567 296.91 69.8875 285.746 58.9467 285.746C48.006 285.746 39.1367 296.91 39.1367 310.683C39.1367 324.455 48.006 335.62 58.9467 335.62Z" fill="white"/>
<path d="M54.3967 320.731C58.9531 320.731 62.6467 316.083 62.6467 310.349C62.6467 304.615 58.9531 299.967 54.3967 299.967C49.8404 299.967 46.1467 304.615 46.1467 310.349C46.1467 316.083 49.8404 320.731 54.3967 320.731Z" fill="#407BFF"/>
<path opacity="0.4" d="M54.3967 320.731C58.9531 320.731 62.6467 316.083 62.6467 310.349C62.6467 304.615 58.9531 299.967 54.3967 299.967C49.8404 299.967 46.1467 304.615 46.1467 310.349C46.1467 316.083 49.8404 320.731 54.3967 320.731Z" fill="black"/>
<path d="M239.177 250.959C239.177 250.959 210.827 273.642 200.017 320.397H154.617L197.617 247.359L220.297 237.52L239.177 250.959Z" fill="#407BFF"/>
<path opacity="0.4" d="M242.107 248.653C242.107 248.653 215.597 269.803 202.937 309.598C201.959 312.725 200.062 315.452 197.515 317.391C194.968 319.329 191.9 320.381 188.747 320.397H154.617L197.617 247.359L220.297 237.52L242.107 248.653Z" fill="black"/>
<path d="M239.377 250.49H221.867C218.543 250.447 215.284 251.443 212.507 253.348C202.117 260.569 177.507 280.706 174.947 312.613C174.787 314.719 173.877 316.686 172.396 318.127C170.916 319.567 168.971 320.377 166.947 320.397H90.8369C78.0475 320.398 65.4868 316.859 54.4369 310.14L32.6769 296.91C30.3326 295.481 28.476 293.322 27.3676 290.736C26.2593 288.15 25.9548 285.266 26.4969 282.49C29.0869 269.458 36.3869 247.098 57.2769 238.355C57.6069 238.198 57.1069 238.063 58.1069 237.938V224.405H112.667C112.667 224.405 101.727 251.627 101.727 262.854C101.727 273.444 112.487 314.136 126.407 318.31H145.407C147.932 318.246 150.397 317.489 152.552 316.115C154.708 314.741 156.479 312.799 157.687 310.485C166.947 293.237 187.517 248.518 181.107 206.25C180.357 201.314 183.997 196.233 188.797 196.233H213.297C213.297 196.233 235.297 222.86 242.437 245.366C243.167 247.558 241.597 250.49 239.377 250.49Z" fill="#407BFF"/>
<path d="M200.107 187.761H193.107C191.27 187.76 189.488 187.105 188.057 185.904L173.667 173.748C173.101 173.268 172.396 173.003 171.667 172.997H144.007C143.476 172.997 142.968 172.777 142.592 172.386C142.217 171.994 142.007 171.463 142.007 170.91C142.007 170.357 142.217 169.826 142.592 169.434C142.968 169.043 143.476 168.823 144.007 168.823H171.647C173.294 168.824 174.89 169.417 176.167 170.503L190.567 182.669C191.283 183.273 192.176 183.601 193.097 183.598H200.097C201.067 183.594 202.004 183.228 202.737 182.565C203.471 181.903 203.953 180.989 204.097 179.987L204.727 175.292C204.98 173.505 205.838 171.871 207.146 170.686C208.454 169.501 210.125 168.844 211.857 168.834H217.107C217.637 168.834 218.146 169.054 218.521 169.445C218.896 169.836 219.107 170.367 219.107 170.92C219.107 171.474 218.896 172.005 218.521 172.396C218.146 172.787 217.637 173.007 217.107 173.007H211.837C211.067 173.013 210.325 173.306 209.744 173.832C209.163 174.358 208.781 175.083 208.667 175.877L208.037 180.572C207.755 182.561 206.801 184.378 205.346 185.697C203.892 187.015 202.033 187.748 200.107 187.761Z" fill="#2E353A"/>
<path d="M187.757 178.913C187.757 178.913 187.847 183.838 183.417 183.525L181.977 188.867C181.771 189.619 181.72 190.408 181.825 191.183C181.93 191.957 182.189 192.7 182.587 193.364L185.717 198.581H214.717L216.997 194.094C217.362 193.38 217.5 192.564 217.39 191.762C217.28 190.961 216.929 190.218 216.387 189.639L207.747 180.426C207.295 179.94 206.754 179.554 206.156 179.291C205.558 179.027 204.916 178.892 204.267 178.892L187.757 178.913Z" fill="#407BFF"/>
<path opacity="0.4" d="M187.757 178.913C187.757 178.913 187.847 183.838 183.417 183.525L181.977 188.867C181.771 189.619 181.72 190.408 181.825 191.183C181.93 191.957 182.189 192.7 182.587 193.364L185.717 198.581H214.717L216.997 194.094C217.362 193.38 217.5 192.564 217.39 191.762C217.28 190.961 216.929 190.218 216.387 189.639L207.747 180.426C207.295 179.94 206.754 179.554 206.156 179.291C205.558 179.027 204.916 178.892 204.267 178.892L187.757 178.913Z" fill="black"/>
<path d="M237.557 350.217C254.904 350.217 268.967 332.517 268.967 310.683C268.967 288.849 254.904 271.149 237.557 271.149C220.209 271.149 206.147 288.849 206.147 310.683C206.147 332.517 220.209 350.217 237.557 350.217Z" fill="#2E353A"/>
<path d="M232.307 335.62C243.248 335.62 252.117 324.455 252.117 310.683C252.117 296.91 243.248 285.746 232.307 285.746C221.366 285.746 212.497 296.91 212.497 310.683C212.497 324.455 221.366 335.62 232.307 335.62Z" fill="white"/>
<path d="M268.467 285.182C265.157 279.308 256.307 266.61 240.397 262.895C236.32 261.898 232.092 261.77 227.967 262.52L227.897 262.342L227.967 262.186H227.837L225.107 255.706H221.997C219.471 255.706 217.014 256.563 214.997 258.148L209.537 262.426L212.107 271.723C211.363 272.555 210.669 273.433 210.027 274.352C205.42 280.325 202.279 287.381 200.877 294.907C200.831 295.221 200.85 295.542 200.934 295.847C201.018 296.152 201.164 296.435 201.363 296.676C201.561 296.917 201.807 297.11 202.084 297.242C202.361 297.375 202.662 297.443 202.967 297.442H204.607C205.037 297.45 205.459 297.32 205.817 297.07C206.174 296.82 206.45 296.462 206.607 296.044C208.072 292.005 210.393 288.363 213.397 285.391L222.507 310.14L229.837 306.927L227.267 276.084C227.267 276.084 244.127 271.138 255.167 285.37C255.809 286.204 256.622 286.878 257.546 287.342C258.47 287.805 259.481 288.048 260.507 288.052H266.917C267.236 288.046 267.548 287.953 267.822 287.783C268.096 287.612 268.322 287.37 268.479 287.08C268.636 286.79 268.717 286.462 268.715 286.129C268.713 285.797 268.627 285.47 268.467 285.182Z" fill="#407BFF"/>
<path opacity="0.2" d="M268.467 285.182C265.157 279.308 256.307 266.61 240.397 262.895C236.32 261.898 232.092 261.77 227.967 262.52L227.897 262.342L227.967 262.186H227.837L225.107 255.706H221.997C219.471 255.706 217.014 256.563 214.997 258.148L209.537 262.426L212.107 271.723C211.363 272.555 210.669 273.433 210.027 274.352C205.42 280.325 202.279 287.381 200.877 294.907C200.831 295.221 200.85 295.542 200.934 295.847C201.018 296.152 201.164 296.435 201.363 296.676C201.561 296.917 201.807 297.11 202.084 297.242C202.361 297.375 202.662 297.443 202.967 297.442H204.607C205.037 297.45 205.459 297.32 205.817 297.07C206.174 296.82 206.45 296.462 206.607 296.044C208.072 292.005 210.393 288.363 213.397 285.391L222.507 310.14L229.837 306.927L227.267 276.084C227.267 276.084 244.127 271.138 255.167 285.37C255.809 286.204 256.622 286.878 257.546 287.342C258.47 287.805 259.481 288.048 260.507 288.052H266.917C267.236 288.046 267.548 287.953 267.822 287.783C268.096 287.612 268.322 287.37 268.479 287.08C268.636 286.79 268.717 286.462 268.715 286.129C268.713 285.797 268.627 285.47 268.467 285.182Z" fill="black"/>
<path d="M227.757 320.731C232.313 320.731 236.007 316.083 236.007 310.349C236.007 304.615 232.313 299.967 227.757 299.967C223.2 299.967 219.507 304.615 219.507 310.349C219.507 316.083 223.2 320.731 227.757 320.731Z" fill="#407BFF"/>
<path opacity="0.4" d="M227.757 320.731C232.313 320.731 236.007 316.083 236.007 310.349C236.007 304.615 232.313 299.967 227.757 299.967C223.2 299.967 219.507 304.615 219.507 310.349C219.507 316.083 223.2 320.731 227.757 320.731Z" fill="black"/>
<path d="M198.047 199.739C198.047 199.739 203.237 233.837 220.377 234.067C236.447 234.296 237.947 202.285 222.617 197.37C210.237 193.395 198.047 199.739 198.047 199.739Z" fill="#407BFF"/>
<path opacity="0.2" d="M198.047 199.739C198.047 199.739 203.237 233.837 220.377 234.067C236.447 234.296 237.947 202.285 222.617 197.37C210.237 193.395 198.047 199.739 198.047 199.739Z" fill="black"/>
<path d="M232.237 215.421C232.617 224.071 227.617 231.072 221.067 231.072C214.517 231.072 208.907 224.05 208.527 215.421C208.147 206.792 213.147 199.77 219.687 199.77C226.227 199.77 231.857 206.761 232.237 215.421Z" fill="white"/>
<path d="M215.927 193.061H201.047L202.227 191.058H215.927V193.061Z" fill="#407BFF"/>
<path d="M134.107 222.965V226.888C134.107 230.446 131.317 232.752 127.897 232.752H60.2767C56.8467 232.752 54.1067 230.446 54.1067 226.888V222.965C54.1067 219.407 56.8467 217.101 60.2767 217.101H127.897C131.317 217.101 134.107 219.407 134.107 222.965Z" fill="#2E353A"/>
<path opacity="0.2" d="M112.107 222.965V226.888C112.144 227.681 112.02 228.473 111.742 229.212C111.463 229.951 111.038 230.62 110.493 231.175C109.949 231.729 109.297 232.156 108.583 232.428C107.868 232.7 107.106 232.81 106.347 232.752H60.2767C56.8467 232.752 54.1067 230.446 54.1067 226.888V222.965C54.1067 219.407 56.8467 217.101 60.2767 217.101H106.347C107.106 217.042 107.868 217.153 108.583 217.425C109.297 217.697 109.949 218.124 110.493 218.678C111.038 219.233 111.463 219.902 111.742 220.641C112.02 221.38 112.144 222.172 112.107 222.965Z" fill="white"/>
<path opacity="0.2" d="M103.597 295.23V320.397H90.8369C78.0475 320.398 65.4869 316.859 54.4369 310.14L32.6769 296.91C30.3326 295.481 28.476 293.322 27.3676 290.736C26.2593 288.15 25.9548 285.266 26.4969 282.49C29.0869 269.458 36.4969 247.098 57.4269 238.355L58.4269 238.407H66.8769C71.7536 238.406 76.5295 239.857 80.644 242.588C84.7586 245.32 88.0413 249.219 90.1069 253.828L99.1069 273.966C102.075 280.626 103.608 287.885 103.597 295.23Z" fill="black"/>
<path d="M160.068 154.719L158.48 155.986L169.312 170.763L170.9 169.496L160.068 154.719Z" fill="#2E353A"/>
<path d="M153.557 152.932H158.657C159.187 152.932 159.705 153.094 160.148 153.399C160.59 153.703 160.938 154.136 161.147 154.644L161.827 156.302C162.002 156.732 162.072 157.2 162.031 157.665C161.991 158.13 161.841 158.577 161.594 158.967C161.347 159.356 161.012 159.676 160.618 159.898C160.224 160.119 159.784 160.235 159.337 160.236H153.787C153.135 160.238 152.505 159.994 152.013 159.549C151.52 159.104 151.198 158.488 151.107 157.815L150.877 156.156C150.822 155.756 150.851 155.348 150.961 154.96C151.07 154.572 151.259 154.213 151.513 153.907C151.767 153.602 152.081 153.356 152.433 153.188C152.786 153.02 153.169 152.933 153.557 152.932Z" fill="#407BFF"/>
<path d="M210.952 157.059L208.286 170.27L210.243 170.7L212.909 157.489L210.952 157.059Z" fill="#2E353A"/>
<path d="M217.927 152.932H212.437C211.899 152.932 211.379 153.134 210.972 153.503C210.566 153.871 210.301 154.38 210.227 154.936L209.857 157.575C209.812 157.909 209.837 158.249 209.93 158.572C210.023 158.895 210.182 159.193 210.395 159.445C210.609 159.698 210.873 159.9 211.168 160.036C211.464 160.173 211.784 160.241 212.107 160.236H217.587C218.125 160.237 218.645 160.034 219.051 159.666C219.457 159.298 219.722 158.789 219.797 158.233L220.167 155.593C220.211 155.26 220.187 154.921 220.094 154.599C220.002 154.277 219.844 153.98 219.631 153.727C219.419 153.474 219.156 153.273 218.862 153.136C218.568 152.998 218.249 152.929 217.927 152.932Z" fill="#407BFF"/>
</svg>
